<svg
  class="logo"
  xmlns="http://www.w3.org/2000/svg"
  width="128"
  height="128"
  viewBox="0 0 24 24"
  fill="none"
  stroke="currentColor"
  stroke-width="2"
  stroke-linecap="round"
  stroke-linejoin="round"
>
  <style>
    @keyframes color {
      0%, 100% {
        fill: #ff8a00;
      }
      50% {
        fill: #e52e71;
      }
    }

    .logo path {
      animation: color 2s infinite alternate;
    }
  </style>

  <path
    d="M2 12a5 5 0 0 0 5 5 8 8 0 0 1 5 2 8 8 0 0 1 5-2 5 5 0 0 0 5-5V7h-5a8 8 0 0 0-5 2 8 8 0 0 0-5-2H2Z"
  />
  <path stroke="#000" d="M6 11c1.5 0 3 .5 3 2-2 0-3 0-3-2" />
  <path stroke="#000" d="M18 11c-1.5 0-3 .5-3 2 2 0 3 0 3-2" />
</svg>
