<svg
  class="logo"
  xmlns="http://www.w3.org/2000/svg"
  width="128"
  height="128"
  viewBox="0 0 24 24"
  fill="none"
  stroke="currentColor"
  stroke-width="2"
  stroke-linecap="round"
  stroke-linejoin="round"
>
  <defs>
    <linearGradient id="gradient" x1="0%" y1="0%" x2="100%" y2="100%">
      <stop offset="0%" style="stop-color: #ff8a00; stop-opacity: 1">
        <animate
          attributeName="stop-color"
          values="#ff8a00;#e52e71;#ff8a00"
          dur="3s"
          repeatCount="indefinite"
        />
      </stop>
      <stop offset="100%" style="stop-color: #e52e71; stop-opacity: 1">
        <animate
          attributeName="stop-color"
          values="#e52e71;#ff8a00;#e52e71"
          dur="3s"
          repeatCount="indefinite"
        />
      </stop>
    </linearGradient>
  </defs>

  <path
    fill="url(#gradient)"
    d="M2 12a5 5 0 0 0 5 5 8 8 0 0 1 5 2 8 8 0 0 1 5-2 5 5 0 0 0 5-5V7h-5a8 8 0 0 0-5 2 8 8 0 0 0-5-2H2Z"
  />
  <path stroke="#000" d="M6 11c1.5 0 3 .5 3 2-2 0-3 0-3-2" />
  <path stroke="#000" d="M18 11c-1.5 0-3 .5-3 2 2 0 3 0 3-2" />
</svg>
